<svg width="24" height="24" viewBox="0 0 24 24" fill="none" xmlns="http://www.w3.org/2000/svg">
<g clip-path="url(#clip0_176_10724)">
<path d="M15.3334 3.46268C14.6668 0.179099 9.33353 0.179112 8.66688 3.46269C4.66661 2.14925 1.99999 5.43284 4.00027 8.7164C5.00679e-05 9.37314 1.44243e-05 14.6269 4.00027 15.2836C1.99999 18.5672 4.66661 21.8508 8.66688 20.5373C9.33353 23.8209 14.6668 23.8209 15.3334 20.5373C19.3331 21.8508 21.9997 18.5672 20 15.2836C24 14.6269 24 9.37314 20 8.7164C21.9997 5.43284 19.3331 2.14925 15.3334 3.46268Z" stroke="white" stroke-width="1.1" stroke-linecap="round" stroke-linejoin="round"/>
<path d="M14.1429 7C13.4286 7.71429 10.5714 7.71429 9.85714 7C9.85714 8.42857 8.42857 9.85714 7 9.85714C7.71429 10.5714 7.71429 13.4286 7 14.1429C8.42857 14.1429 9.85714 15.5714 9.85714 17C10.5714 16.2857 13.4286 16.2857 14.1429 17C14.1429 15.5714 15.5714 14.1429 17 14.1429C16.2857 13.4286 16.2857 10.5714 17 9.85714C15.5714 9.85714 14.1429 8.42857 14.1429 7Z" stroke="white" stroke-width="1.1" stroke-linecap="round" stroke-linejoin="round"/>
</g>
<defs>
<clipPath id="clip0_176_10724">
<rect width="24" height="24" fill="white"/>
</clipPath>
</defs>
</svg>
