<svg width="24" height="24" viewBox="0 0 24 24" fill="none" xmlns="http://www.w3.org/2000/svg">
<path d="M21 16V18C21 19.6569 19.6569 21 18 21C16.3431 21 15 19.6569 15 18V16C15 14.3431 16.3431 13 18 13C19.6569 13 21 14.3431 21 16ZM21 16V12C21 7.02944 16.9706 3 12 3C7.02944 3 3 7.02944 3 12V16M3 16V18C3 19.6569 4.34315 21 6 21C7.65685 21 9 19.6569 9 18V16C9 14.3431 7.65685 13 6 13C4.34315 13 3 14.3431 3 16Z" stroke="white" stroke-width="1.2" stroke-linecap="square" stroke-linejoin="round"/>
</svg>
