<svg width="24" height="24" viewBox="0 0 24 24" fill="none" xmlns="http://www.w3.org/2000/svg">
<path d="M13.6831 10.0808L14.1877 10.4055L13.6831 10.0808ZM9.4 9C9.4 9.33137 9.66863 9.6 10 9.6C10.3314 9.6 10.6 9.33137 10.6 9H9.4ZM11.4 13.5C11.4 13.8314 11.6686 14.1 12 14.1C12.3314 14.1 12.6 13.8314 12.6 13.5H11.4ZM12.6 16C12.6 15.6686 12.3314 15.4 12 15.4C11.6686 15.4 11.4 15.6686 11.4 16H12.6ZM11.4 17C11.4 17.3314 11.6686 17.6 12 17.6C12.3314 17.6 12.6 17.3314 12.6 17H11.4ZM21.4 12C21.4 17.1915 17.1915 21.4 12 21.4V22.6C17.8542 22.6 22.6 17.8542 22.6 12H21.4ZM12 21.4C6.80852 21.4 2.6 17.1915 2.6 12H1.4C1.4 17.8542 6.14578 22.6 12 22.6V21.4ZM2.6 12C2.6 6.80852 6.80852 2.6 12 2.6V1.4C6.14578 1.4 1.4 6.14578 1.4 12H2.6ZM12 2.6C17.1915 2.6 21.4 6.80852 21.4 12H22.6C22.6 6.14578 17.8542 1.4 12 1.4V2.6ZM13.4 9C13.4 9.2796 13.3187 9.53837 13.1785 9.75612L14.1877 10.4055C14.4487 9.99988 14.6 9.5167 14.6 9H13.4ZM10.6 9C10.6 8.2268 11.2268 7.6 12 7.6V6.4C10.5641 6.4 9.4 7.56406 9.4 9H10.6ZM12 7.6C12.7732 7.6 13.4 8.2268 13.4 9H14.6C14.6 7.56406 13.4359 6.4 12 6.4V7.6ZM11.4 13V13.5H12.6V13H11.4ZM13.1785 9.75612C13.0479 9.95912 12.8858 10.167 12.7005 10.3973C12.5215 10.6198 12.3164 10.8684 12.1323 11.1215C11.7682 11.6218 11.4 12.2501 11.4 13H12.6C12.6 12.6453 12.7745 12.2784 13.1026 11.8275C13.2645 11.605 13.4429 11.3889 13.6354 11.1496C13.8217 10.9181 14.0195 10.6669 14.1877 10.4055L13.1785 9.75612ZM11.4 16V17H12.6V16H11.4Z" fill="white"/>
</svg>
