<svg width="24" height="24" viewBox="0 0 24 24" fill="none" xmlns="http://www.w3.org/2000/svg">
<path d="M21 13.8L18.3549 11.8955C16.9804 10.9059 15.102 11.0082 13.8431 12.1412L10.1569 15.4588C8.89798 16.5918 7.01958 16.6941 5.64511 15.7045L3 13.8M6.6 21H17.4C19.3882 21 21 19.3882 21 17.4V6.6C21 4.61177 19.3882 3 17.4 3H6.6C4.61177 3 3 4.61177 3 6.6V17.4C3 19.3882 4.61177 21 6.6 21ZM11.1 8.85C11.1 10.0926 10.0926 11.1 8.85 11.1C7.60736 11.1 6.6 10.0926 6.6 8.85C6.6 7.60736 7.60736 6.6 8.85 6.6C10.0926 6.6 11.1 7.60736 11.1 8.85Z" stroke="white" stroke-width="1.2" stroke-linecap="round"/>
</svg>
