<svg width="24" height="24" viewBox="0 0 24 24" fill="none" xmlns="http://www.w3.org/2000/svg">
<path d="M21 11.5C21.0034 12.8199 20.6951 14.1219 20.1 15.3C19.3944 16.7118 18.3098 17.8992 16.9674 18.7293C15.6251 19.5594 14.0782 19.9994 12.5 20C11.4586 20.0027 10.4283 19.8113 9.46116 19.4381C8.96366 19.2461 8.41545 19.1949 7.90955 19.3635L4.89737 20.3676C4.11561 20.6282 3.37187 19.8844 3.63246 19.1027L4.63652 16.0905C4.80515 15.5846 4.75389 15.0364 4.5619 14.5389C4.1887 13.5718 3.99728 12.5415 4 11.5C4.00061 9.92179 4.44061 8.37488 5.27072 7.03258C6.10083 5.69028 7.28825 4.6056 8.7 3.90003C9.87812 3.30496 11.1801 2.99659 12.5 3.00003H13C15.0843 3.11502 17.053 3.99479 18.5291 5.47089C20.0052 6.94699 20.885 8.91568 21 11V11.5Z" stroke="white" stroke-width="1.2" stroke-linecap="round" stroke-linejoin="round"/>
</svg>
