<svg width="24" height="24" viewBox="0 0 24 24" fill="none" xmlns="http://www.w3.org/2000/svg">
<path d="M21 17.625C21 19.489 19.489 21 17.625 21C15.761 21 14.25 19.489 14.25 17.625C14.25 15.761 15.761 14.25 17.625 14.25C19.489 14.25 21 15.761 21 17.625Z" stroke="white" stroke-width="1.2"/>
<path d="M14.25 5.25C14.25 4.00736 15.2574 3 16.5 3H18.75C19.9926 3 21 4.00736 21 5.25V7.5C21 8.74264 19.9926 9.75 18.75 9.75H16.5C15.2574 9.75 14.25 8.74264 14.25 7.5V5.25Z" stroke="white" stroke-width="1.2"/>
<path d="M3 5.25C3 4.00736 4.00736 3 5.25 3H7.5C8.74264 3 9.75 4.00736 9.75 5.25V7.5C9.75 8.74264 8.74264 9.75 7.5 9.75H5.25C4.00736 9.75 3 8.74264 3 7.5V5.25Z" stroke="white" stroke-width="1.2"/>
<path d="M3 16.5C3 15.2574 4.00736 14.25 5.25 14.25H7.5C8.74264 14.25 9.75 15.2574 9.75 16.5V18.75C9.75 19.9926 8.74264 21 7.5 21H5.25C4.00736 21 3 19.9926 3 18.75V16.5Z" stroke="white" stroke-width="1.2"/>
</svg>
