<svg width="24" height="24" viewBox="0 0 24 24" fill="none" xmlns="http://www.w3.org/2000/svg">
<path d="M18.6 10.051C19.2576 10.4401 19.7 11.1672 19.7 12C19.7 12.8328 19.2576 13.56 18.6 13.949M18.6 6.48751C21.1105 7.00869 23 9.27866 23 12C23 14.7213 21.1105 16.9913 18.6 17.5125M7.08655 7.05234L11.78 3.45388C13.2303 2.34192 15.3 3.3998 15.3 5.25306V18.7469C15.3 20.6002 13.2303 21.6581 11.78 20.5461L7.08655 16.9477C6.70581 16.6558 6.24278 16.498 5.76693 16.498H3.2C1.98497 16.498 1 15.4911 1 14.249V9.75102C1 8.50894 1.98497 7.50204 3.2 7.50204H5.76693C6.24278 7.50204 6.70581 7.34425 7.08655 7.05234Z" stroke="#B7B4BD" stroke-width="1.2" stroke-linecap="round"/>
</svg>
